<svg width="8" height="12" viewBox="0 0 8 12" fill="none" xmlns="http://www.w3.org/2000/svg">
<path d="M6.41473 11.7625L0.202751 6.44327C0.129019 6.37995 0.0769143 6.31134 0.0464381 6.23747C0.0154704 6.16359 -1.35104e-05 6.08443 -1.35104e-05 6C-1.35104e-05 5.91557 0.0154704 5.83641 0.0464381 5.76253C0.0769143 5.68865 0.129019 5.62005 0.202751 5.55673L6.41473 0.221634C6.58678 0.0738771 6.80183 -1.43051e-06 7.05989 -1.43051e-06C7.31796 -1.43051e-06 7.53916 0.0791542 7.72349 0.237466C7.90782 0.395777 7.99999 0.580473 7.99999 0.791555C7.99999 1.00264 7.90782 1.18733 7.72349 1.34564L2.30413 6L7.72349 10.6544C7.89553 10.8021 7.98155 10.9841 7.98155 11.2002C7.98155 11.4168 7.88939 11.6042 7.70506 11.7625C7.52072 11.9208 7.30567 12 7.05989 12C6.81412 12 6.59906 11.9208 6.41473 11.7625Z" fill="white"/>
</svg>
